<?xml version="1.0" encoding="UTF-8"?>
<svg width="287px" height="86px" viewBox="0 0 287 86" version="1.1" xmlns="http://www.w3.org/2000/svg" xmlns:xlink="http://www.w3.org/1999/xlink">
    <!-- Generator: Sketch 50.2 (55047) - http://www.bohemiancoding.com/sketch -->
    <title>Group</title>
    <desc>Created with Sketch.</desc>
    <defs></defs>
    <g id="Page-1" stroke="none" stroke-width="1" fill="none" fill-rule="evenodd">
        <g id="Group">
            <path d="M106.966601,48.5969637 L122,1.55453997 L104.444219,1.55453997 L95.5452535,29.3366199 C95.3673565,23.8031508 93.6622908,18.4292584 90.621563,13.8185181 C78.9580669,-3.53002809 50.2634448,-4.72998615 26.6135875,11.2762341 C2.96373018,27.2824544 -6.72221821,54.7797984 4.94127797,72.0469916 C16.1204767,88.7853896 42.837551,90.5954959 65.700425,76.7654707 L65.700425,73.2469496 C46.3285283,84.0465722 24.3131747,81.9720684 14.6877635,67.7962927 C4.45698055,52.4002206 12.6698576,28.74681 32.9699911,14.9167848 C53.2701246,1.08675971 78.2114417,2.30705605 88.4422247,17.7031281 C92.9017967,24.2520518 93.4869894,31.9399187 91.9332019,40.8684202 C89.9431656,50.4947262 84.612887,59.0904616 76.8998028,65.1116407 C77.8513562,65.3311671 78.814885,65.4941541 79.7854083,65.5997593 C80.8561527,65.8012688 81.9456845,65.8831169 83.0342368,65.8438185 C84.609228,65.8650791 86.182894,65.7425491 87.7359576,65.4777296 C96.73837,63.7641059 104.109188,57.261807 106.98678,48.4952723 L106.966601,48.5969637 Z" id="Shape" fill="#ED1C24"></path>
            <path d="M182.065681,66 L182.428456,66 C189.239666,65.9755496 195.763074,63.2252232 200.567207,58.3525424 L198.55179,64.779661 L215.985145,64.779661 L231,18 L213.344949,18 L205.283282,43.3423729 C205.29987,43.4765782 205.255419,43.6111543 205.162357,43.7084746 L204.799582,44.8067797 C203.165272,49.2553482 199.037498,52.2732198 194.339569,52.4542373 C193.270145,52.4067668 192.263352,51.9319592 191.541217,51.134523 C190.819081,50.3370868 190.440918,49.282522 190.490123,48.2033898 C190.511375,47.7071396 190.592593,47.2153648 190.731973,46.7389831 L199.861811,18 L182.307531,18 L171.847518,50.7457627 C171.630141,51.4573059 171.468412,52.1849618 171.363818,52.9220339 C171.125335,53.7481266 171.003213,54.6039729 171.001043,55.4644068 C170.922221,61.0498981 175.322459,65.6539443 180.856431,65.7762712 C181.166534,65.8863192 181.496426,65.9279339 181.823831,65.8983051 L182.065681,66 Z" id="Shape" fill="#FFFFFF"></path>
            <path d="M158.78775,17.4940139 L158.545326,17.4940139 C151.68215,17.4605799 145.107278,20.2459799 140.363556,25.1965974 L147.959495,1 L130.383784,1 L110,65 L127.595913,65 L135.555488,39.8758664 C135.625623,39.8138156 135.669046,39.7271328 135.6767,39.6339004 L136.040335,38.4442344 C137.748251,34.0873147 141.845136,31.1248462 146.525156,30.8626339 C148.746246,31.0446962 150.481022,32.8541141 150.565549,35.0768746 C150.544247,35.5688514 150.462836,36.0563911 150.323126,36.5286704 L140.969615,65 L158.666538,65 L169.151359,32.5362319 C169.383102,31.8828548 169.545605,31.2070362 169.636206,30.5198488 C169.882596,29.6610898 170.00504,28.7716502 169.999841,27.8783869 C169.961875,22.387875 165.617012,17.8915815 160.121079,17.6553245 C159.792933,17.6828591 159.462644,17.6416508 159.151385,17.5343415 L158.78775,17.4940139 Z" id="Shape" fill="#FFFFFF"></path>
            <path d="M177.603806,80.5102429 L177.603806,78.5405012 L182.623875,78.5405012 L182.623875,84.7648849 L180.741349,84.7648849 L180.741349,84.0951728 C179.808065,84.6116994 178.758105,84.8958812 177.684775,84.9224643 C176.582893,84.9471507 175.493766,84.6889907 174.52699,84.1739624 C173.637068,83.6741906 172.929476,82.9167882 172.502768,82.0072466 C172.049459,81.0436093 171.821322,79.9941674 171.834775,78.9344495 C171.816765,77.8276244 172.073701,76.7329359 172.583737,75.743468 C173.073972,74.8234383 173.844662,74.0734901 174.790138,73.5964495 C175.65243,73.1876937 176.604781,72.9915267 177.563322,73.0252244 C178.755666,72.9562173 179.937744,73.2749651 180.923529,73.9313056 C181.740409,74.5427454 182.295662,75.4268873 182.48218,76.4131801 L180.457958,76.8071285 C180.114091,75.5262022 178.854261,74.6865288 177.502595,74.8373868 C176.539763,74.8227935 175.614695,75.2014368 174.952076,75.8813499 C173.734867,77.6730328 173.734867,79.998892 174.952076,81.790575 C175.595176,82.4719076 176.511953,82.8460154 177.462111,82.8148407 C178.618632,82.8985221 179.763885,82.5458545 180.660381,81.8299698 L180.660381,80.372361 L177.603806,80.5102429 Z M158.333218,79.0329366 C158.328116,76.7236498 159.60543,74.591826 161.673183,73.4585676 C162.4549,73.141648 163.296092,72.9873306 164.142734,73.005527 C166.608873,72.9019665 168.894052,74.2613255 169.923693,76.4443827 C170.953334,78.6274398 170.522539,81.1997656 168.833884,82.9517564 C167.145228,84.7037473 164.534756,85.2867561 162.230008,84.4266304 C159.925259,83.5665047 158.384882,81.4344099 158.333218,79.0329366 Z M160.742042,79.0329366 C160.48164,80.3718228 161.070908,81.7322212 162.237657,82.485753 C163.404407,83.2392848 164.921545,83.2392848 166.088294,82.485753 C167.255044,81.7322212 167.844312,80.3718228 167.58391,79.0329366 C167.715693,78.0595552 167.419607,77.0772198 166.768404,76.3273066 C166.1172,75.5773934 165.171246,75.1294172 164.162976,75.0934532 C163.155611,75.1359012 162.211983,75.5848938 161.558954,76.3324865 C160.905925,77.0800793 160.602562,78.0586502 160.721799,79.0329366 L160.742042,79.0329366 Z M124.52872,84.7451875 L124.52872,73.1237115 L126.552941,73.1237115 L132.018339,81.0026783 L132.018339,73.1237115 L134.184256,73.1237115 L134.184256,84.6467004 L132.160035,84.6467004 L126.795848,77.1222871 L126.795848,84.6467004 L124.52872,84.7451875 Z M111.776125,84.7451875 L111.776125,73.1237115 L114.063495,73.1237115 L114.063495,77.6541174 L119.387197,77.6541174 L119.387197,73.1237115 L121.69481,73.1237115 L121.69481,84.6467004 L119.387197,84.6467004 L119.387197,79.6041617 L114.063495,79.6041617 L114.063495,84.6467004 L111.776125,84.7451875 Z M88.4773356,84.7451875 L88.4773356,73.1237115 L97.0195502,73.1237115 L97.0195502,75.0934532 L90.7849481,75.0934532 L90.7849481,77.6541174 L96.5742215,77.6541174 L96.5742215,79.6238591 L90.7849481,79.6238591 L90.7849481,82.7557484 L97.2422145,82.7557484 L97.2422145,84.7254901 L88.4773356,84.7451875 Z M187.42128,84.7451875 L187.42128,79.8996229 L183.2109,73.1237115 L185.943599,73.1237115 L188.656055,77.6738148 L191.307785,73.1237115 L194,73.1237115 L189.769377,79.8208333 L189.769377,84.6663979 L187.42128,84.7451875 Z M150.03391,84.7451875 L150.03391,73.3009882 L152.260554,73.3009882 L152.260554,82.7951432 L157.503287,82.7951432 L157.503287,84.7648849 L150.03391,84.7451875 Z M136.471626,79.0329366 C136.466524,76.7236498 137.743838,74.591826 139.811592,73.4585676 C140.600593,73.1422795 141.448244,72.9880417 142.301384,73.005527 C144.766099,72.9100347 147.045302,74.274794 148.068521,76.458819 C149.09174,78.6428439 148.655659,81.2121642 146.965092,82.9600481 C145.274525,84.707932 142.665391,85.2870712 140.363122,84.4254618 C138.060852,83.5638523 136.522912,81.4326977 136.471626,79.0329366 Z M138.88045,79.0329366 C138.644904,80.3625696 139.242587,81.7014608 140.402014,82.4414439 C141.56144,83.1814269 143.06157,83.1814269 144.220997,82.4414439 C145.380423,81.7014608 145.978107,80.3625696 145.742561,79.0329366 C145.742561,77.0631949 144.669723,75.0934532 142.341869,75.0934532 C141.334504,75.1359012 140.390876,75.5848938 139.737847,76.3324865 C139.084817,77.0800793 138.781455,78.0586502 138.900692,79.0329366 L138.88045,79.0329366 Z M107.059689,80.5693351 L109.488754,81.2784421 C109.210225,82.3886027 108.553876,83.3743985 107.626471,84.0754753 C105.298064,85.5179275 102.262845,85.2508961 100.238062,83.4254606 C98.0674912,80.8853949 98.0674912,77.2001757 100.238062,74.66011 C101.353586,73.5833771 102.878385,73.0055664 104.448443,73.0646192 C105.803751,73.0064471 107.130119,73.4578291 108.152768,74.3252539 C108.772598,74.8974905 109.214515,75.6278462 109.428028,76.4328775 L106.938235,76.9844052 C106.820613,76.4201204 106.497044,75.9163446 106.027336,75.5661912 C105.535171,75.2156128 104.936624,75.0353343 104.32699,75.0540584 C103.47286,75.0170365 102.647206,75.3572285 102.080104,75.979837 C100.644659,77.7682519 100.644659,80.2779239 102.080104,82.0663388 C102.638081,82.6780721 103.44634,83.0172074 104.286505,82.9921174 C104.914993,83.0064859 105.527108,82.79626 106.007093,82.4011949 C106.545794,81.9072857 106.907613,81.258353 107.039446,80.5496377 L107.059689,80.5693351 Z M80.4209343,84.8042798 L80.4209343,75.0934532 L77,75.0934532 L77,73.1237115 L86.1697232,73.1237115 L86.1697232,75.0934532 L82.7487889,75.0934532 L82.7487889,84.6663979 L80.4209343,84.8042798 Z" id="Shape" fill="#FFFFFF"></path>
            <path d="M58.3346045,42.2796726 C55.6694546,43.1291485 52.8822368,43.8572708 50.095019,44.4438137 C49.6067472,44.5651674 49.2405434,44.6865211 48.8743396,44.8078748 C46.5545636,45.3195873 44.3114562,46.1286359 42.2012926,47.2147232 C41.0309081,47.9543943 40.1373964,49.055866 39.6582107,50.3496939 C39.1151694,51.510085 39.3062106,52.8791165 40.1464824,53.8487257 C41.000958,54.9409091 42.180948,55.1836165 44.0323116,55.1836165 C45.6847347,55.0920167 47.3153748,54.7650724 48.8743396,54.2127868 C49.2613611,54.1022675 49.631089,53.9389055 49.972951,53.727372 C51.7598597,52.9251366 53.3392882,51.7284741 54.5911878,50.2283402 C55.8552959,48.6993272 56.8087897,46.9408765 57.3987503,45.0505822 L58.2532258,42.2796726 L58.3346045,42.2796726 Z M48.8743396,36.7580791 C51.2953536,36.2726643 53.1263726,35.7872494 54.2046394,35.544542 C56.4724711,35.0212806 58.7019476,34.3455392 60.8776864,33.5219803 C61.6075612,32.2400142 61.8664735,30.7456795 61.610094,29.2948263 C60.1676646,28.5259268 58.6071617,27.9996904 56.9918572,27.7374537 C54.5536575,27.5031249 52.1009407,28.0034832 49.9526064,29.1734726 L48.853995,29.9015948 C47.7087898,30.7710497 46.7243677,31.8318374 45.9447092,33.0365655 L29.2010578,31.2364855 C30.6329952,28.8049622 32.3844889,26.5739914 34.4092896,24.6024831 C38.3332718,21.0032713 43.2241343,18.6143066 48.4877912,17.7257732 L48.853995,17.7257732 C55.6009753,16.7189527 62.4643085,16.7598918 69.1986505,17.8471269 C72.7869271,18.3187639 75.9902163,20.3218151 77.9717237,23.333024 C79.953231,26.3442328 80.5161359,30.0644998 79.5133908,33.5219803 C77.9265077,38.4772566 75.4444597,46.1832168 71.0296695,59.8152828 C70.8292191,60.3159973 70.7457422,60.8554226 70.7855336,61.392881 C70.7595047,62.2218546 70.9266133,63.0455869 71.2738054,63.7997295 L54.1639501,63.7997295 L54.1639501,63.6783758 C53.5696631,62.6973771 53.2729536,61.5666458 53.3094745,60.4220514 C53.3149769,59.7320681 53.4388207,59.0480726 53.6756783,58.3994896 C52.1762419,59.609744 50.5533719,60.6604711 48.8336503,61.5344603 C47.8597611,62.0859545 46.846608,62.5659074 45.8022967,62.9704792 C42.1349126,64.3903439 38.2219747,65.0776307 34.2872216,64.9930409 C27.7362426,64.9930409 25.1931606,63.4356684 23.1180058,60.9479174 C21.114962,58.3374867 20.4874332,54.9325797 21.4293994,51.7857128 C22.4090841,48.3619037 24.4971158,45.3548163 27.3700388,43.2302766 C31.3040269,40.6180626 35.7845391,38.93041 40.4719969,38.295226 C43.7474865,37.6884575 46.5753936,37.2030427 48.8336503,36.7378535 L48.8743396,36.7580791 Z" id="Shape" fill="#FFFFFF"></path>
            <path d="M265.334604,42.2796726 C262.669455,43.1291485 259.882237,43.8572708 257.095019,44.4438137 C256.606747,44.5651674 256.240543,44.6865211 255.87434,44.8078748 C253.554499,45.3193674 251.311364,46.1284261 249.201293,47.2147232 C248.030908,47.9543943 247.137396,49.055866 246.658211,50.3496939 C246.115169,51.510085 246.306211,52.8791165 247.146482,53.8487257 C248.000958,54.9409091 249.180948,55.1836165 251.032312,55.1836165 C252.684699,55.0917393 254.3153,54.7648029 255.87434,54.2127868 C256.261361,54.1022675 256.631089,53.9389055 256.972951,53.727372 C258.75986,52.9251366 260.339288,51.7284741 261.591188,50.2283402 C262.891571,48.7077257 263.879921,46.9487242 264.500474,45.0505822 L265.354949,42.2796726 L265.334604,42.2796726 Z M255.87434,36.7580791 C258.295354,36.2726643 260.126373,35.7872494 261.204639,35.544542 C263.472487,35.0213408 265.701968,34.3455982 267.877686,33.5219803 C268.607561,32.2400142 268.866473,30.7456795 268.610094,29.2948263 C267.167665,28.5259268 265.607162,27.9996904 263.991857,27.7374537 C261.553658,27.5031249 259.100941,28.0034832 256.952606,29.1734726 L255.853995,29.9015948 C254.70879,30.7710497 253.724368,31.8318374 252.944709,33.0365655 L236.201058,31.2364855 C237.632995,28.8049622 239.384489,26.5739914 241.40929,24.6024831 C245.333272,21.0032713 250.224134,18.6143066 255.487791,17.7257732 L255.853995,17.7257732 C262.600975,16.7189527 269.464308,16.7598918 276.198651,17.8471269 C279.786927,18.3187639 282.990216,20.3218151 284.971724,23.333024 C286.953231,26.3442328 287.516136,30.0644998 286.513391,33.5219803 C284.926508,38.4772566 282.44446,46.1832168 278.029669,59.8152828 C277.829903,60.3161821 277.746451,60.8554507 277.785534,61.392881 C277.759505,62.2218546 277.926613,63.0455869 278.273805,63.7997295 L261.16395,63.7997295 L261.16395,63.6783758 C260.569663,62.6973771 260.272954,61.5666458 260.309475,60.4220514 C260.314977,59.7320681 260.438821,59.0480726 260.675678,58.3994896 C259.176154,59.609624 257.553297,60.6603425 255.83365,61.5344603 C254.859727,62.0858905 253.846579,62.5658411 252.802297,62.9704792 C249.134913,64.3903439 245.221975,65.0776307 241.287222,64.9930409 C234.736243,64.9930409 232.193161,63.4356684 230.118006,60.9479174 C228.114962,58.3374867 227.487433,54.9325797 228.429399,51.7857128 C229.414448,48.3590987 231.509884,45.3516482 234.390383,43.2302766 C238.324372,40.6180626 242.804884,38.93041 247.492342,38.295226 C250.767831,37.6884575 253.595738,37.2030427 255.853995,36.7378535 L255.87434,36.7580791 Z" id="Shape" fill="#FFFFFF"></path>
        </g>
    </g>
</svg>